<svg width="28" height="27" viewBox="0 0 28 27" fill="none" xmlns="http://www.w3.org/2000/svg">
<circle cx="14.1967" cy="13.4077" r="12.5138" stroke="#B2B2B2" stroke-width="1.78769"/>
<path d="M17.7724 13.4077C17.7724 17.0332 17.2321 20.2762 16.3872 22.5806C15.9634 23.7364 15.48 24.609 14.9883 25.1762C14.4946 25.7457 14.0734 25.9215 13.7501 25.9215C13.4269 25.9215 13.0057 25.7457 12.5119 25.1762C12.0203 24.609 11.5369 23.7364 11.1131 22.5806C10.2681 20.2762 9.72783 17.0332 9.72783 13.4077C9.72783 9.78213 10.2681 6.53916 11.1131 4.23472C11.5369 3.07893 12.0203 2.20629 12.5119 1.63914C13.0057 1.06961 13.4269 0.893844 13.7501 0.893844C14.0734 0.893844 14.4946 1.06961 14.9883 1.63914C15.48 2.20629 15.9634 3.07893 16.3872 4.23472C17.2321 6.53916 17.7724 9.78213 17.7724 13.4077Z" stroke="#B2B2B2" stroke-width="1.78769"/>
<path d="M0.789574 13.8546L27.1581 13.8546" stroke="#B2B2B2" stroke-width="1.78769"/>
</svg>
