<svg width="28" height="24" viewBox="0 0 28 24" fill="none" xmlns="http://www.w3.org/2000/svg">
<path d="M17.1206 10.5344C19.7394 10.5344 21.8624 8.4001 21.8624 5.76725C21.8624 3.1344 19.7394 1.00006 17.1206 1.00006C14.5019 1.00006 12.3789 3.1344 12.3789 5.76725C12.3789 8.4001 14.5019 10.5344 17.1206 10.5344Z" stroke="#B2B2B2" stroke-width="1.78769" stroke-linecap="round" stroke-linejoin="round"/>
<path d="M26.6037 22.4524V20.0688C26.6037 18.8044 26.1041 17.5919 25.2148 16.6979C24.3256 15.8038 23.1195 15.3016 21.8619 15.3016H12.3785C11.1209 15.3016 9.91479 15.8038 9.02554 16.6979C8.13629 17.5919 7.63672 18.8044 7.63672 20.0688V22.4524" stroke="#B2B2B2" stroke-width="1.78769"/>
<path d="M20.5179 22.4524V20.0688C20.5179 18.8044 20.0183 17.5919 19.1291 16.6979C18.2398 15.8038 17.0337 15.3016 15.7762 15.3016H6.29269C5.03511 15.3016 3.82903 15.8038 2.93978 16.6979C2.05053 17.5919 1.55096 18.8044 1.55096 20.0688V22.4524" fill="white"/>
<path d="M1.55096 22.4524V20.0688C1.55096 18.8044 2.05053 17.5919 2.93978 16.6979C3.82903 15.8038 5.03511 15.3016 6.29269 15.3016H15.7762C17.0337 15.3016 18.2398 15.8038 19.1291 16.6979C20.0183 17.5919 20.5179 18.8044 20.5179 20.0688V22.4524H0.681641" stroke="#B2B2B2" stroke-width="1.78769"/>
<path d="M11.0347 10.5344C13.6535 10.5344 15.7764 8.4001 15.7764 5.76725C15.7764 3.1344 13.6535 1.00006 11.0347 1.00006C8.41592 1.00006 6.29297 3.1344 6.29297 5.76725C6.29297 8.4001 8.41592 10.5344 11.0347 10.5344Z" fill="white" stroke="#B2B2B2" stroke-width="1.78769" stroke-linecap="round" stroke-linejoin="round"/>
</svg>
