<svg width="26" height="27" viewBox="0 0 26 27" fill="none" xmlns="http://www.w3.org/2000/svg">
<path fill-rule="evenodd" clip-rule="evenodd" d="M20.1347 3.68225L20.9823 5.25626L5.02857 13.8467L19.6349 21.5556L18.8005 23.1366L1.22852 13.8625L20.1347 3.68225Z" fill="#B2B2B2"/>
<path fill-rule="evenodd" clip-rule="evenodd" d="M22.3469 5.363C23.3342 5.363 24.1346 4.56263 24.1346 3.57532C24.1346 2.588 23.3342 1.78763 22.3469 1.78763C21.3595 1.78763 20.5592 2.588 20.5592 3.57532C20.5592 4.56263 21.3595 5.363 22.3469 5.363ZM22.3469 7.15069C24.3215 7.15069 25.9222 5.54994 25.9222 3.57532C25.9222 1.60069 24.3215 -6.10352e-05 22.3469 -6.10352e-05C20.3722 -6.10352e-05 18.7715 1.60069 18.7715 3.57532C18.7715 5.54994 20.3722 7.15069 22.3469 7.15069Z" fill="#B2B2B2"/>
<path fill-rule="evenodd" clip-rule="evenodd" d="M21.4523 25.0276C22.4396 25.0276 23.24 24.2272 23.24 23.2399C23.24 22.2526 22.4396 21.4522 21.4523 21.4522C20.465 21.4522 19.6646 22.2526 19.6646 23.2399C19.6646 24.2272 20.465 25.0276 21.4523 25.0276ZM21.4523 26.8152C23.427 26.8152 25.0277 25.2145 25.0277 23.2399C25.0277 21.2652 23.427 19.6645 21.4523 19.6645C19.4777 19.6645 17.877 21.2652 17.877 23.2399C17.877 25.2145 19.4777 26.8152 21.4523 26.8152Z" fill="#B2B2B2"/>
<path fill-rule="evenodd" clip-rule="evenodd" d="M3.57538 15.1953C4.56269 15.1953 5.36307 14.3949 5.36307 13.4076C5.36307 12.4203 4.56269 11.6199 3.57538 11.6199C2.58806 11.6199 1.78769 12.4203 1.78769 13.4076C1.78769 14.3949 2.58806 15.1953 3.57538 15.1953ZM3.57538 16.983C5.55 16.983 7.15075 15.3822 7.15075 13.4076C7.15075 11.433 5.55 9.83221 3.57538 9.83221C1.60075 9.83221 0 11.433 0 13.4076C0 15.3822 1.60075 16.983 3.57538 16.983Z" fill="#B2B2B2"/>
<circle cx="3.5748" cy="13.4076" r="1.78769" fill="white"/>
</svg>
