<svg width="29" height="25" viewBox="0 0 29 25" fill="none" xmlns="http://www.w3.org/2000/svg">
<path d="M13.7607 0.94423C13.7609 0.943896 13.7611 0.943562 13.7613 0.943229C13.8037 0.870948 13.8642 0.810969 13.9369 0.769224C14.0099 0.727286 14.0926 0.705218 14.1768 0.705218C14.261 0.705218 14.3437 0.727287 14.4167 0.769224C14.4894 0.810967 14.5499 0.870945 14.5923 0.943225C14.5925 0.94356 14.5927 0.943895 14.5928 0.94423L27.5845 23.4456C27.5846 23.4459 27.5848 23.4461 27.5849 23.4464C27.6266 23.5193 27.6485 23.6018 27.6484 23.6858C27.6483 23.7701 27.626 23.8529 27.5839 23.9259C27.5418 23.999 27.4813 24.0596 27.4084 24.1019C27.3357 24.1441 27.2533 24.1665 27.1693 24.1669H1.18429C1.1003 24.1665 1.01788 24.1441 0.945216 24.1019C0.872301 24.0596 0.811761 23.999 0.769646 23.9259C0.72753 23.8529 0.705314 23.7701 0.705218 23.6858C0.705122 23.6018 0.726999 23.5193 0.768672 23.4463C0.768813 23.4461 0.768955 23.4459 0.769096 23.4456L13.7607 0.94423Z" fill="white" stroke="white" stroke-width="1.41044"/>
<path d="M14.178 20.7736H14.1629L14.1479 20.7742C14.0235 20.7795 13.8993 20.7589 13.7832 20.7137C13.6671 20.6685 13.5617 20.5996 13.4736 20.5115C13.3855 20.4234 13.3166 20.318 13.2714 20.2019C13.2262 20.0858 13.2056 19.9616 13.2109 19.8372L12.5063 19.8071H13.2116C13.2116 19.616 13.2682 19.4292 13.3744 19.2702C13.4806 19.1113 13.6315 18.9874 13.8081 18.9143C13.9847 18.8412 14.179 18.822 14.3665 18.8593C14.554 18.8966 14.7262 18.9886 14.8613 19.1238C14.9965 19.2589 15.0885 19.4311 15.1258 19.6186C15.1631 19.8061 15.144 20.0004 15.0708 20.177C14.9977 20.3536 14.8738 20.5045 14.7149 20.6107C14.5559 20.7169 14.3691 20.7736 14.178 20.7736ZM14.5426 16.5053H13.7841L13.4321 9.55763H14.8808L14.5426 16.5053Z" fill="#D72130" stroke="#D72130" stroke-width="1.41044"/>
</svg>
