<svg width="24" height="24" viewBox="0 0 24 24" fill="none" xmlns="http://www.w3.org/2000/svg">
<path opacity="0.93" d="M6.8456 1.92936C3.03407 3.89276 0.667969 7.74581 0.667969 12.0229C0.667969 13 0.815274 13.9955 1.08227 14.9726C1.38608 14.6961 10.9425 6.00364 11.1359 5.8285C10.9517 5.64415 6.97449 2.03997 6.8456 1.92936ZM16.6875 1.68048C15.2052 1.00757 13.6309 0.666515 12.0105 0.666515C10.6571 0.666515 9.33139 0.924614 8.05167 1.40394C8.34628 1.67126 16.3008 8.89804 16.6967 9.25754C16.6875 8.73212 16.6875 1.83718 16.6875 1.68048ZM7.37038 22.3745C8.53041 22.8907 9.72727 23.2133 10.9702 23.3332H13.0509C16.9637 22.9737 20.4714 20.5494 22.2114 16.9637C21.7971 16.9637 7.61896 16.9637 7.37038 16.9637C7.37038 17.1849 7.37038 22.2086 7.37038 22.3745ZM6.17352 21.7201C6.17352 21.2776 6.17352 12.4838 6.17352 11.9584C5.79605 12.2994 1.61625 16.1064 1.48736 16.2262C2.3896 18.4938 4.056 20.4388 6.17352 21.7201ZM17.8935 2.32573C17.8935 2.7774 17.8935 15.5165 17.8935 15.7469C18.1237 15.7469 22.5429 15.7469 22.727 15.7469C23.0676 14.779 23.2702 13.7743 23.3346 12.7603V11.2209C23.0768 7.58911 21.033 4.25225 17.8935 2.32573Z" fill="white"/>
</svg>
