<svg width="30" height="24" viewBox="0 0 30 24" fill="none" xmlns="http://www.w3.org/2000/svg">
<path d="M27.4008 4.44091H22.5817L19.6973 1.52803C19.6973 1.52803 19.683 1.51375 19.6759 1.51375L19.6616 1.49947C19.2333 1.0711 18.655 0.799805 17.9981 0.799805H12.001C11.3014 0.799805 10.6802 1.09966 10.2447 1.578V1.58514L7.42466 4.44091H2.49846C1.17052 4.44091 0.0996094 5.48327 0.0996094 6.8112V21.24C0.0996094 22.5679 1.17052 23.646 2.49846 23.646H27.4008C28.7216 23.646 29.7996 22.5679 29.7996 21.24V6.8112C29.7996 5.48327 28.7216 4.44091 27.4008 4.44091ZM14.9496 20.0405C11.3156 20.0405 8.35278 17.0705 8.35278 13.4294C8.35278 9.7812 11.3156 6.81834 14.9496 6.81834C18.5907 6.81834 21.5464 9.7812 21.5464 13.4294C21.5464 17.0705 18.5907 20.0405 14.9496 20.0405ZM26.951 8.2605C26.4012 8.2605 25.9515 7.81072 25.9515 7.25384C25.9515 6.69697 26.4012 6.24718 26.951 6.24718C27.5007 6.24718 27.9505 6.69697 27.9505 7.25384C27.9505 7.81072 27.5007 8.2605 26.951 8.2605Z" fill="white"/>
<path d="M14.9501 8.43164C12.1943 8.43164 9.9668 10.6663 9.9668 13.4292C9.9668 16.1851 12.1943 18.4268 14.9501 18.4268C17.6988 18.4268 19.9334 16.1922 19.9334 13.4292C19.9334 10.6663 17.6988 8.43164 14.9501 8.43164Z" fill="white"/>
</svg>
