<svg width="17" height="20" viewBox="0 0 17 20" fill="none" xmlns="http://www.w3.org/2000/svg">
<path d="M15.9154 3.47705C15.7952 3.02614 15.715 2.77563 15.715 2.77563C15.5847 2.30968 15.2541 2.30968 14.7631 2.22952L12.1027 1.89384C11.772 1.83873 11.772 1.83873 11.6417 1.55315C11.2058 0.571158 11.0706 0 10.5946 0H5.43414C4.95818 0 4.82791 0.571158 4.39203 1.55816C4.26176 1.83873 4.26176 1.83873 3.93109 1.89885L1.26569 2.23453C0.779703 2.31469 0.428991 2.35979 0.298727 2.82573C0.298727 2.82573 0.238605 3.03115 0.113351 3.47705C-0.0469737 4.07326 -0.112106 4.00813 0.439012 4.00813H15.5897C16.1409 4.01314 16.0807 4.07326 15.9154 3.47705Z" fill="white"/>
<path d="M14.1952 5.61133H1.8301C0.99841 5.61133 0.958328 5.72155 1.00843 6.34782L1.94533 18.5025C2.02549 19.1187 2.08561 19.244 2.82211 19.244H13.2032C13.9397 19.244 13.9998 19.1187 14.0799 18.5025L15.0168 6.34782C15.0669 5.71654 15.0269 5.61133 14.1952 5.61133Z" fill="white"/>
</svg>
