<svg width="28" height="24" viewBox="0 0 28 24" fill="none" xmlns="http://www.w3.org/2000/svg">
<path d="M17.438 10.5344C20.0568 10.5344 22.1798 8.40004 22.1798 5.76719C22.1798 3.13434 20.0568 1 17.438 1C14.8192 1 12.6963 3.13434 12.6963 5.76719C12.6963 8.40004 14.8192 10.5344 17.438 10.5344Z" stroke="#B2B2B2" stroke-width="1.78769" stroke-linecap="round" stroke-linejoin="round"/>
<path d="M26.921 22.4525V20.0689C26.921 18.8046 26.4215 17.5921 25.5322 16.698C24.643 15.804 23.4369 15.3018 22.1793 15.3018H12.6958C11.4382 15.3018 10.2322 15.804 9.34292 16.698C8.45368 17.5921 7.9541 18.8046 7.9541 20.0689V22.4525" stroke="#B2B2B2" stroke-width="1.78769"/>
<path d="M20.8363 22.4525V20.0689C20.8363 18.8046 20.3367 17.5921 19.4474 16.698C18.5582 15.804 17.3521 15.3018 16.0945 15.3018H6.61105C5.35347 15.3018 4.14739 15.804 3.25814 16.698C2.36889 17.5921 1.86932 18.8046 1.86932 20.0689V22.4525" fill="white"/>
<path d="M1.86932 22.4525V20.0689C1.86932 18.8046 2.36889 17.5921 3.25814 16.698C4.14739 15.804 5.35347 15.3018 6.61105 15.3018H16.0945C17.3521 15.3018 18.5582 15.804 19.4474 16.698C20.3367 17.5921 20.8363 18.8046 20.8363 20.0689V22.4525H1" stroke="#B2B2B2" stroke-width="1.78769"/>
<path d="M11.3531 10.5344C13.9719 10.5344 16.0948 8.40004 16.0948 5.76719C16.0948 3.13434 13.9719 1 11.3531 1C8.73428 1 6.61133 3.13434 6.61133 5.76719C6.61133 8.40004 8.73428 10.5344 11.3531 10.5344Z" fill="white" stroke="#B2B2B2" stroke-width="1.78769" stroke-linecap="round" stroke-linejoin="round"/>
</svg>
