<svg width="18" height="18" viewBox="0 0 18 18" fill="none" xmlns="http://www.w3.org/2000/svg">
<path d="M10.1284 1.00006C9.68887 1.00006 9.31346 1.24005 9.09875 1.65416C9.06769 1.71534 9.05148 1.78593 9.05148 1.85651V3.9647C8.39452 6.1623 7.76658 7.59365 6.52354 8.40069C6.41686 8.47127 6.35069 8.60304 6.35069 8.74421V15.1331C6.35069 15.9009 7.54512 16.4586 8.05219 16.4586H14.2829C14.5888 16.4586 14.8879 16.2774 15.1465 15.9315C15.4827 15.4837 15.6954 14.8382 15.7015 14.2837C16.2079 13.8516 16.4442 13.0947 16.401 12.0304C16.9297 11.3857 16.9169 10.4312 16.7325 9.83438C16.9587 9.4587 16.9999 8.8046 16.9999 8.3803C16.9999 7.15522 15.5482 6.26348 14.9311 6.26348H12.0851C12.5537 3.88941 12.0061 2.56003 11.6179 1.96553C11.2216 1.36084 10.6659 1.00006 10.1284 1.00006ZM9.72533 1.98043C9.84281 1.82122 10.0049 1.78436 10.1284 1.78436C10.4545 1.78436 10.811 2.02984 11.0771 2.43846C11.416 2.95923 11.8995 4.18666 11.3235 6.54975C11.2945 6.66582 11.3147 6.79523 11.3789 6.89327C11.4437 6.99131 11.5423 7.04699 11.6476 7.04699H14.9271C15.2971 7.04699 16.3213 7.71129 16.3213 8.38108C16.3213 8.94577 16.2322 9.27988 16.1816 9.37635C16.1005 9.41792 16.0351 9.49243 16.0013 9.58968C15.9588 9.70654 15.9723 9.84223 16.0324 9.94967C16.187 10.2273 16.3078 11.1097 15.8338 11.5692C15.7494 11.6508 15.7049 11.7755 15.7137 11.9026C15.7792 12.8688 15.6077 13.4696 15.189 13.7316C15.0648 13.81 14.9952 13.9684 15.0148 14.1308C15.058 14.5064 14.8906 15.0704 14.632 15.4162C14.5084 15.5801 14.3795 15.6743 14.2782 15.6743H8.04881C7.72607 15.6743 7.08801 15.29 7.01914 15.0954L7.02319 8.96773C8.34523 8.01717 9.03528 6.41014 9.70575 4.15529C9.71993 4.11372 9.7233 4.07294 9.7233 4.02823V1.982H9.72466L9.72533 1.98043Z" fill="black" stroke="#7F8899"/>
<path d="M5.30796 7.52458H2.04281C1.46789 7.52458 1 8.0572 1 8.71163V15.8136C1 16.4681 1.46789 17 2.04281 17H5.30796C5.88287 17 6.35077 16.4681 6.35077 15.8136V8.71231C6.35077 8.05787 5.88287 7.52458 5.30796 7.52458ZM2.04281 16.3226C1.79548 16.3226 1.59453 16.0938 1.59453 15.813V8.71163C1.59453 8.4301 1.79548 8.20135 2.04281 8.20135H5.30796C5.55529 8.20135 5.75624 8.4301 5.75624 8.71163V15.8136C5.75624 16.0945 5.55529 16.3232 5.30796 16.3232L2.04281 16.3226Z" fill="black" stroke="#7F8899"/>
</svg>
