<svg width="18" height="18" viewBox="0 0 18 18" xmlns="http://www.w3.org/2000/svg">
<path d="M10.1284 16.9999C9.68887 16.9999 9.31346 16.7599 9.09875 16.3458C9.06769 16.2847 9.05148 16.2141 9.05148 16.1435V14.0353C8.39452 11.8377 7.76658 10.4064 6.52354 9.59931C6.41686 9.52873 6.35069 9.39696 6.35069 9.25579V2.86691C6.35069 2.09908 7.54512 1.54144 8.05219 1.54144H14.2829C14.5888 1.54144 14.8879 1.72262 15.1465 2.06849C15.4827 2.51632 15.6954 3.1618 15.7015 3.7163C16.2079 4.14845 16.4442 4.90529 16.401 5.96958C16.9297 6.61428 16.9169 7.56877 16.7325 8.16562C16.9587 8.5413 16.9999 9.1954 16.9999 9.6197C16.9999 10.8448 15.5482 11.7365 14.9311 11.7365H12.0851C12.5537 14.1106 12.0061 15.44 11.6179 16.0345C11.2216 16.6392 10.6659 16.9999 10.1284 16.9999ZM9.72533 16.0196C9.84281 16.1788 10.0049 16.2156 10.1284 16.2156C10.4545 16.2156 10.811 15.9702 11.0771 15.5615C11.416 15.0408 11.8995 13.8133 11.3235 11.4503C11.2945 11.3342 11.3147 11.2048 11.3789 11.1067C11.4437 11.0087 11.5423 10.953 11.6476 10.953H14.9271C15.2971 10.953 16.3213 10.2887 16.3213 9.61892C16.3213 9.05423 16.2322 8.72012 16.1816 8.62365C16.1005 8.58208 16.0351 8.50757 16.0013 8.41032C15.9588 8.29346 15.9723 8.15777 16.0324 8.05033C16.187 7.77268 16.3078 6.89035 15.8338 6.43075C15.7494 6.34918 15.7049 6.22448 15.7137 6.09743C15.7792 5.13117 15.6077 4.5304 15.189 4.26844C15.0648 4.19001 14.9952 4.03159 15.0148 3.86924C15.058 3.49356 14.8906 2.92965 14.632 2.58377C14.5084 2.41986 14.3795 2.32574 14.2782 2.32574H8.04881C7.72607 2.32574 7.08801 2.71005 7.01914 2.90455L7.02319 9.03227C8.34523 9.98283 9.03528 11.5899 9.70575 13.8447C9.71993 13.8863 9.7233 13.9271 9.7233 13.9718V16.018H9.72466L9.72533 16.0196Z" fill="red" stroke="#7F8899"/>
<path d="M5.30796 10.4754H2.04281C1.46789 10.4754 1 9.9428 1 9.28837V2.18637C1 1.53194 1.46789 1 2.04281 1H5.30796C5.88287 1 6.35077 1.53194 6.35077 2.18637V9.28769C6.35077 9.94213 5.88287 10.4754 5.30796 10.4754ZM2.04281 1.67744C1.79548 1.67744 1.59453 1.90619 1.59453 2.18705V9.28837C1.59453 9.5699 1.79548 9.79865 2.04281 9.79865H5.30796C5.55529 9.79865 5.75624 9.5699 5.75624 9.28837V2.18637C5.75624 1.90551 5.55529 1.67677 5.30796 1.67677L2.04281 1.67744Z" fill="red" stroke="#7F8899"/>
</svg>
